<svg width="388" height="3" viewBox="0 0 388 3" fill="none" xmlns="http://www.w3.org/2000/svg">
<path d="M33.0166 0.0746725C36.0853 -0.0414776 42.0023 0.00595701 45.2571 0.0320081C45.3168 0.0324353 45.3765 0.0328627 45.4362 0.0332899C46.2087 0.0394607 46.9394 0.0410638 47.7955 0.0428115C49.8369 0.0469792 52.595 0.0526389 58.3516 0.126675C60.0264 0.123947 61.7016 0.122464 63.3765 0.122464C81.4644 0.122465 99.5522 0.219037 117.64 0.334687C117.869 0.334091 118.101 0.333476 118.336 0.332856C122.872 0.32087 128.498 0.306039 132.033 0.34842C136.526 0.402304 139.579 0.452304 142.085 0.495457C156.452 0.588512 170.819 0.671664 185.186 0.706032C189.689 0.716803 194.192 0.722694 198.695 0.722695C202.841 0.722695 206.989 0.719007 211.135 0.712075C213.55 0.686797 215.846 0.656765 217.975 0.628943C220.966 0.589848 223.63 0.555128 225.83 0.543797C231.13 0.516503 237.143 0.559582 241.607 0.591589C242.337 0.59682 243.026 0.601772 243.663 0.606055C247.209 0.590201 250.756 0.573229 254.302 0.555883C254.539 0.565534 254.778 0.575597 255.02 0.585913C258.047 0.714652 261.767 0.713002 267.623 0.71061C270.174 0.709568 273.129 0.70844 276.609 0.717751C278.851 0.723751 280.003 0.774796 280.944 0.816447C281.221 0.828698 281.481 0.840151 281.743 0.849406C282.644 0.881111 283.594 0.846845 284.715 0.806376C286.171 0.753872 287.917 0.69081 290.223 0.747781C297.572 0.929308 300.81 0.806156 303.26 0.71299C303.978 0.685662 304.629 0.66097 305.296 0.647254C307.458 0.602794 310.539 0.646845 312.867 0.707314C314.713 0.755262 318.406 0.707727 321.207 0.647254C322.267 0.624388 323.699 0.623813 325.386 0.623267C327.132 0.622701 329.151 0.622187 331.312 0.596533C336.773 0.531703 339.674 0.50028 342.007 0.475132C342.672 0.467961 343.292 0.461433 343.911 0.454623C345.866 0.433106 348.293 0.415379 350.75 0.397493C353.691 0.376089 356.675 0.354356 358.946 0.325348C364.831 0.356047 370.717 0.394027 376.602 0.431918C379.625 0.45159 382.525 0.562385 384.662 0.745034C386.799 0.92783 388 1.16618 388 1.4132C388 1.66022 386.799 1.89856 384.662 2.08136C382.525 2.26401 379.625 2.37499 376.602 2.39466C370.512 2.43387 364.421 2.4731 358.331 2.50434C350.913 2.5424 343.494 2.56862 336.075 2.56862C330.885 2.56862 325.696 2.56272 320.506 2.55214C319.971 2.55105 319.437 2.54984 318.903 2.54866C314.543 2.60948 310.192 2.6648 307.126 2.68452C304.594 2.7008 302.749 2.66834 301.168 2.64058C300.081 2.62147 299.118 2.60456 298.144 2.60725C297.622 2.6087 296.907 2.61245 296.046 2.61696C292.528 2.63536 286.554 2.6666 281.104 2.60725C278.686 2.58091 275.876 2.529 273.194 2.47944C269.359 2.40857 265.783 2.34251 263.978 2.3628C260.807 2.39845 257.172 2.36828 253.959 2.34156C250.895 2.31608 248.214 2.29382 246.69 2.33497C244.869 2.38416 243.316 2.36411 241.007 2.33442C239.405 2.31383 237.439 2.28869 234.768 2.27857C231.684 2.26689 229.502 2.23243 227.647 2.20313C225.037 2.16189 223.073 2.13089 220.146 2.18793C216.895 2.2513 213.496 2.29163 210.82 2.27161C209.601 2.26249 208.206 2.26471 206.756 2.26704C204.835 2.27011 202.814 2.2733 200.97 2.25056C199.45 2.23181 198.193 2.18386 197.082 2.14142C196.735 2.12818 196.402 2.11555 196.08 2.10443C194.869 2.10505 193.658 2.10594 192.447 2.10736C192.251 2.11508 192.045 2.12363 191.83 2.13245C190.751 2.17671 189.424 2.23101 187.781 2.25806C185.18 2.30088 182.898 2.27407 180.491 2.24561C178.617 2.22346 176.667 2.20033 174.432 2.20862C172.907 2.21428 171.172 2.23388 169.451 2.2533C166.896 2.28214 164.372 2.31053 162.619 2.29249C161.962 2.28572 161.397 2.25561 160.838 2.22565C160.836 2.22547 160.833 2.22529 160.831 2.2251C160.793 2.22307 160.755 2.22108 160.717 2.21906C156.447 2.24201 152.177 2.2673 147.907 2.29395C147.537 2.30169 147.163 2.30933 146.792 2.31684C144.981 2.35356 143.222 2.38924 142.075 2.43989C140.832 2.49479 137.706 2.52672 134.413 2.56038C132.256 2.58242 130.026 2.60518 128.205 2.63563C127.141 2.65343 126.131 2.6224 125.092 2.59041C124.123 2.56055 123.128 2.52991 122.04 2.53749C121.496 2.54129 120.907 2.55414 120.279 2.56788C119.726 2.57998 119.142 2.59281 118.53 2.60066C117.961 2.60793 116.694 2.59103 115.071 2.56953C114.067 2.55624 112.927 2.54123 111.73 2.52888C108.567 2.54822 105.403 2.56676 102.24 2.584C101.58 2.6112 101.007 2.64651 100.554 2.69185C100.229 2.72437 99.9516 2.76325 99.6671 2.803C99.2801 2.85708 98.8796 2.91297 98.3277 2.95754C97.8963 2.99236 97.3875 3.00624 97.0459 2.99178C96.8868 2.98504 96.7646 2.97233 96.6537 2.96083C96.5266 2.94767 96.4132 2.93596 96.2747 2.9363C96.1749 2.93656 96.071 2.94589 95.9432 2.95717C95.7391 2.97519 95.4737 2.99846 95.0699 2.99929C93.5671 3.00236 91.859 2.99492 90.1856 2.98757C88.3248 2.9794 86.5061 2.97147 85.0571 2.97841C83.4338 2.9862 81.1206 2.95158 78.8036 2.91707C77.1872 2.893 75.5685 2.86904 74.1798 2.85921C72.8189 2.84958 71.4018 2.86873 70.0296 2.88741C68.3824 2.90983 66.798 2.9315 65.4516 2.90114C65.1794 2.89498 64.8412 2.85745 64.417 2.8105C64.1164 2.77723 63.7704 2.73919 63.3765 2.70412C61.6627 2.70412 59.9485 2.70258 58.2346 2.69972C58.1743 2.70481 58.112 2.70999 58.0496 2.71529C58.0486 2.71541 58.0476 2.71553 58.0467 2.71565C56.639 2.83506 54.7127 2.9984 52.0064 2.90096C51.3184 2.87619 50.8854 2.83044 50.4952 2.78926C50.112 2.74882 49.7695 2.71264 49.2682 2.70503C48.6988 2.69641 48.0266 2.72124 47.2937 2.74825C46.2647 2.78616 45.1154 2.82852 43.962 2.78908C43.8833 2.78639 43.7986 2.78343 43.7104 2.78047C42.8744 2.75242 41.6368 2.71092 40.4053 2.62739C36.7516 2.6051 33.0974 2.57899 29.4437 2.55049C23.3533 2.50298 17.2616 2.44881 11.1718 2.39466C8.20904 2.36801 5.36758 2.25427 3.27251 2.07221C1.17731 1.88988 0 1.65556 0 1.4132C0.000174795 1.17085 1.17746 0.936683 3.27251 0.754373C5.3676 0.572292 8.20892 0.45857 11.1718 0.431918C16.0031 0.388964 20.836 0.345948 25.6679 0.306305C25.9212 0.301272 26.1755 0.296403 26.4287 0.29184C28.3123 0.257878 30.06 0.189667 31.8089 0.121365C32.2106 0.105677 32.6131 0.0899534 33.0166 0.0746725Z" fill="#D9D9D9"/>
</svg>
