<svg width="428" height="15" viewBox="0 0 428 15" fill="none" xmlns="http://www.w3.org/2000/svg" xmlns:xlink="http://www.w3.org/1999/xlink">
<rect width="428" height="15" fill="url(#pattern0_425_8117)"/>
<defs>
<pattern id="pattern0_425_8117" patternUnits="userSpaceOnUse" patternTransform="matrix(20 0 0 31 -0.391602 -0.5)" preserveAspectRatio="none" viewBox="-0.391602 -0.5 20 31" width="1" height="1">
<use xlink:href="#pattern0_425_8117_inner" transform="translate(-20 -31)"/>
<use xlink:href="#pattern0_425_8117_inner" transform="translate(0 -31)"/>
<use xlink:href="#pattern0_425_8117_inner" transform="translate(-20 0)"/>
<g id="pattern0_425_8117_inner">
<path d="M0 0H10V31H0V0Z" fill="#9A8A58"/>
<path d="M6.97775 -0.475109C7.62627 -0.513826 8.87677 -0.498014 9.56464 -0.489331C9.57726 -0.489188 9.58988 -0.489046 9.60249 -0.488903C9.73454 -0.48724 9.86081 -0.486572 10 -0.486069C10.2749 -0.489422 10.4827 -0.274942 10.4861 0C10.486 0.0328974 10.4858 0.0665167 10.4857 0.101105C10.4843 0.532542 10.4825 1.11544 10.4578 2.33203C10.4587 2.686 10.4592 3.04004 10.4592 3.394C10.4592 7.2167 10.427 11.0394 10.3884 14.8621C10.3886 14.9104 10.3888 14.9595 10.389 15.0091C10.393 15.9679 10.398 17.1568 10.3839 17.9038C10.3659 18.8535 10.3492 19.4986 10.3348 20.0284C10.3038 23.0646 10.2761 26.101 10.2647 29.1372C10.2623 29.7581 10.2607 30.3791 10.2598 31C10.2616 31.147 10.147 31.258 10 31.2598C9.66925 31.2593 9.33851 31.2591 9.00778 31.2591C8.13148 31.2591 7.25495 31.2603 6.37865 31.2626C5.86831 31.2711 5.38312 31.2811 4.93318 31.2904C4.30093 31.3034 3.73806 31.315 3.27312 31.3187C2.17706 31.3276 0.936874 31.3141 0 31.3035C-0.171671 31.3056 -0.301404 31.1717 -0.303497 31C-0.303265 30.9794 -0.303033 30.9589 -0.302804 30.9386C-0.30106 30.7844 -0.299409 30.6388 -0.297982 30.5041C-0.303266 29.7547 -0.308924 29.0051 -0.314706 28.2557C-0.311489 28.2057 -0.308134 28.1552 -0.304696 28.104C-0.261783 27.4644 -0.262333 26.6781 -0.26313 25.4404C-0.263477 24.9015 -0.263853 24.2768 -0.26075 23.5414C-0.25875 23.0675 -0.241735 22.8241 -0.227851 22.6252C-0.223767 22.5667 -0.21995 22.5118 -0.216865 22.4563C-0.206296 22.2659 -0.217718 22.0652 -0.231208 21.8282C-0.248709 21.5206 -0.26973 21.1516 -0.25074 20.6642C-0.190231 19.1111 -0.231281 18.4267 -0.262337 17.909C-0.271446 17.7572 -0.279677 17.6195 -0.284249 17.4786C-0.299069 17.0217 -0.284385 16.3707 -0.264229 15.8786C-0.248246 15.4885 -0.264091 14.7079 -0.284249 14.116C-0.291871 13.8921 -0.292062 13.5894 -0.292244 13.2329C-0.292433 12.864 -0.292604 12.4371 -0.301156 11.9804C-0.322766 10.8264 -0.33324 10.2131 -0.341623 9.72011C-0.344013 9.57955 -0.346189 9.44863 -0.348459 9.31784C-0.355631 8.90454 -0.36154 8.39164 -0.367502 7.87237C-0.374637 7.25094 -0.381881 6.62025 -0.39155 6.14037C-0.381318 4.89654 -0.368658 3.65261 -0.356027 2.40891C-0.34947 1.77007 -0.312538 1.1571 -0.251655 0.705376C-0.190723 0.25372 -0.111273 4.14716e-05 -0.0289338 0C0.0534064 -1.23183e-06 0.132853 0.253743 0.193788 0.705376C0.254671 1.1571 0.291663 1.77007 0.298221 2.40891C0.311291 3.69587 0.324368 4.98309 0.334781 6.27018C0.347466 7.83803 0.356205 9.40598 0.356205 10.9738C0.356205 12.0706 0.354241 13.1674 0.350712 14.2642C0.350349 14.3771 0.349948 14.4901 0.349552 14.603C0.369827 15.5244 0.388268 16.444 0.394841 17.092C0.400267 17.627 0.389447 18.017 0.380192 18.351C0.373824 18.5809 0.368187 18.7843 0.369084 18.9901C0.369565 19.1006 0.370816 19.2516 0.372319 19.4336C0.378454 20.177 0.388867 21.4396 0.369084 22.5914C0.360305 23.1025 0.343002 23.6962 0.326481 24.263C0.302857 25.0735 0.280838 25.8293 0.2876 26.2109C0.299485 26.8809 0.289426 27.6493 0.28052 28.3283C0.272025 28.9759 0.264607 29.5423 0.278323 29.8644C0.293973 30.2318 0.288596 30.5476 0.279468 31L0 30.7205C0.0215556 30.721 0.0434238 30.7214 0.0656205 30.7219C0.404106 30.7287 0.81952 30.7371 1.38409 30.7405C2.0359 30.7444 2.49704 30.7559 2.889 30.7656C3.44064 30.7794 3.85569 30.7897 4.4743 30.7707C5.16147 30.7496 5.87966 30.7361 6.44528 30.7428C6.70291 30.7458 6.99762 30.7451 7.30424 30.7443C7.71019 30.7433 8.13716 30.7422 8.527 30.7498C8.84826 30.7561 9.11379 30.772 9.34874 30.7862C9.42203 30.7906 9.49239 30.7948 9.56051 30.7985C9.70701 30.7984 9.8535 30.7983 10 30.7981L9.79806 31C9.79792 30.8906 9.79775 30.7812 9.79755 30.6719C9.79497 30.6304 9.79212 30.5869 9.78918 30.5414C9.77443 30.3133 9.75633 30.0328 9.74731 29.6856C9.73304 29.136 9.74198 28.6537 9.75146 28.145C9.75885 27.749 9.76656 27.3368 9.76379 26.8644C9.76191 26.5422 9.75537 26.1754 9.7489 25.8118C9.73929 25.2718 9.72982 24.7385 9.73584 24.3679C9.73809 24.2291 9.74813 24.1097 9.75812 23.9916C9.75818 23.9911 9.75824 23.9906 9.7583 23.99C9.75898 23.982 9.75964 23.974 9.76031 23.966C9.75266 23.0635 9.74423 22.161 9.73535 21.2586C9.73277 21.1804 9.73022 21.1014 9.72772 21.0231C9.71548 20.6404 9.70359 20.2686 9.6867 20.0262C9.6684 19.7634 9.65776 19.1029 9.64654 18.4068C9.63919 17.9509 9.63161 17.4796 9.62146 17.0949C9.61552 16.87 9.62587 16.6566 9.63653 16.437C9.64648 16.2322 9.6567 16.0219 9.65417 15.792C9.6529 15.6769 9.64862 15.5525 9.64404 15.4198C9.64001 15.303 9.63573 15.1794 9.63311 15.0501C9.63069 14.9299 9.63632 14.6622 9.64349 14.319C9.64792 14.1069 9.65292 13.866 9.65704 13.613C9.65059 12.9445 9.64441 12.2759 9.63867 11.6073C9.6296 11.4679 9.61783 11.3468 9.60272 11.251C9.59188 11.1823 9.57892 11.1238 9.56567 11.0637C9.54764 10.9819 9.52901 10.8972 9.51415 10.7806C9.50255 10.6894 9.49792 10.5819 9.50274 10.5097C9.50499 10.4761 9.50922 10.4502 9.51305 10.4268C9.51744 10.4 9.52135 10.376 9.52123 10.3467C9.52115 10.3256 9.51804 10.3037 9.51428 10.2767C9.50827 10.2335 9.50051 10.1774 9.50024 10.0921C9.49921 9.7745 9.50169 9.41349 9.50414 9.05984C9.50687 8.66659 9.50951 8.28221 9.5072 7.97598C9.5046 7.63291 9.51614 7.14405 9.52764 6.65437C9.53567 6.31277 9.54365 5.97065 9.54693 5.67717C9.55014 5.38955 9.54376 5.09008 9.53753 4.80006C9.53006 4.45195 9.52283 4.11711 9.53295 3.83256C9.53501 3.77502 9.54752 3.70356 9.56317 3.61391C9.57426 3.55037 9.58694 3.47725 9.59863 3.394C9.59863 3.0318 9.59914 2.66953 9.60009 2.30732C9.5984 2.29456 9.59667 2.2814 9.5949 2.26822C9.59486 2.26801 9.59482 2.2678 9.59478 2.26759C9.55498 1.97009 9.50053 1.56299 9.53301 0.991035C9.54127 0.845642 9.55652 0.754122 9.57025 0.671661C9.58372 0.590675 9.59579 0.518294 9.59832 0.412346C9.60116 0.293288 9.59309 0.152963 9.5842 0L10 0.415795C9.99836 0.415891 9.99671 0.415986 9.99506 0.416082C9.7776 0.428719 9.53469 0.44284 9.29094 0.429693C9.2743 0.428795 9.2564 0.427811 9.23776 0.426824C9.06109 0.417472 8.79953 0.403639 8.53927 0.375798C7.76709 0.368366 6.99482 0.359663 6.22263 0.350163C4.93549 0.334326 3.64808 0.316268 2.36105 0.298221C1.7349 0.289337 1.13439 0.251425 0.691612 0.190736C0.248813 0.129961 -1.24176e-08 0.0518541 0 -0.0289338C3.69466e-05 -0.109715 0.248845 -0.187772 0.691612 -0.248542C1.13439 -0.309236 1.73487 -0.347143 2.36105 -0.356027C3.38211 -0.370345 4.40349 -0.384684 5.42467 -0.397898C5.47819 -0.399576 5.53194 -0.401199 5.58545 -0.40272C5.98353 -0.414041 6.35288 -0.436778 6.7225 -0.459545C6.80739 -0.464774 6.89245 -0.470016 6.97775 -0.475109Z" fill="#9A8A58"/>
<path d="M10 0H20V31H10V0Z" fill="#B2C9C5"/>
<path d="M16.9777 -0.475109C17.6263 -0.513826 18.8768 -0.498014 19.5646 -0.489331C19.5773 -0.489188 19.5899 -0.489046 19.6025 -0.488903C19.7345 -0.48724 19.8608 -0.486572 20 -0.486069C20.2749 -0.489422 20.4827 -0.274942 20.4861 0C20.486 0.0328974 20.4858 0.0665167 20.4857 0.101105C20.4843 0.532542 20.4825 1.11544 20.4578 2.33203C20.4587 2.686 20.4592 3.04004 20.4592 3.394C20.4592 7.2167 20.427 11.0394 20.3884 14.8621C20.3886 14.9104 20.3888 14.9595 20.389 15.0091C20.393 15.9679 20.398 17.1568 20.3839 17.9038C20.3659 18.8535 20.3492 19.4986 20.3348 20.0284C20.3038 23.0646 20.2761 26.101 20.2647 29.1372C20.2623 29.7581 20.2607 30.3791 20.2598 31C20.2616 31.147 20.147 31.258 20 31.2598C19.6693 31.2593 19.3385 31.2591 19.0078 31.2591C18.1315 31.2591 17.255 31.2603 16.3787 31.2626C15.8683 31.2711 15.3831 31.2811 14.9332 31.2904C14.3009 31.3034 13.7381 31.315 13.2731 31.3187C12.1771 31.3276 10.9369 31.3141 10 31.3035C9.82833 31.3056 9.6986 31.1717 9.6965 31C9.69674 30.9794 9.69697 30.9589 9.6972 30.9386C9.69894 30.7844 9.70059 30.6388 9.70202 30.5041C9.69673 29.7547 9.69108 29.0051 9.68529 28.2557C9.68851 28.2057 9.69187 28.1552 9.6953 28.104C9.73822 27.4644 9.73767 26.6781 9.73687 25.4404C9.73652 24.9015 9.73615 24.2768 9.73925 23.5414C9.74125 23.0675 9.75827 22.8241 9.77215 22.6252C9.77623 22.5667 9.78005 22.5118 9.78314 22.4563C9.7937 22.2659 9.78228 22.0652 9.76879 21.8282C9.75129 21.5206 9.73027 21.1516 9.74926 20.6642C9.80977 19.1111 9.76872 18.4267 9.73766 17.909C9.72855 17.7572 9.72032 17.6195 9.71575 17.4786C9.70093 17.0217 9.71562 16.3707 9.73577 15.8786C9.75175 15.4885 9.73591 14.7079 9.71575 14.116C9.70813 13.8921 9.70794 13.5894 9.70776 13.2329C9.70757 12.864 9.7074 12.4371 9.69884 11.9804C9.67723 10.8264 9.66676 10.2131 9.65838 9.72011C9.65599 9.57955 9.65381 9.44863 9.65154 9.31784C9.64437 8.90454 9.63846 8.39164 9.6325 7.87237C9.62536 7.25094 9.61812 6.62025 9.60845 6.14037C9.61868 4.89654 9.63134 3.65261 9.64397 2.40891C9.65053 1.77007 9.68746 1.1571 9.74834 0.705376C9.80928 0.25372 9.88873 4.14716e-05 9.97107 0C10.0534 -1.23183e-06 10.1329 0.253743 10.1938 0.705376C10.2547 1.1571 10.2917 1.77007 10.2982 2.40891C10.3113 3.69587 10.3244 4.98309 10.3348 6.27018C10.3475 7.83803 10.3562 9.40598 10.3562 10.9738C10.3562 12.0706 10.3542 13.1674 10.3507 14.2642C10.3503 14.3771 10.3499 14.4901 10.3496 14.603C10.3698 15.5244 10.3883 16.444 10.3948 17.092C10.4003 17.627 10.3894 18.017 10.3802 18.351C10.3738 18.5809 10.3682 18.7843 10.3691 18.9901C10.3696 19.1006 10.3708 19.2516 10.3723 19.4336C10.3785 20.177 10.3889 21.4396 10.3691 22.5914C10.3603 23.1025 10.343 23.6962 10.3265 24.263C10.3029 25.0735 10.2808 25.8293 10.2876 26.2109C10.2995 26.8809 10.2894 27.6493 10.2805 28.3283C10.272 28.9759 10.2646 29.5423 10.2783 29.8644C10.294 30.2318 10.2886 30.5476 10.2795 31L10 30.7205C10.0216 30.721 10.0434 30.7214 10.0656 30.7219C10.4041 30.7287 10.8195 30.7371 11.3841 30.7405C12.0359 30.7444 12.497 30.7559 12.889 30.7656C13.4406 30.7794 13.8557 30.7897 14.4743 30.7707C15.1615 30.7496 15.8797 30.7361 16.4453 30.7428C16.7029 30.7458 16.9976 30.7451 17.3042 30.7443C17.7102 30.7433 18.1372 30.7422 18.527 30.7498C18.8483 30.7561 19.1138 30.772 19.3487 30.7862C19.422 30.7906 19.4924 30.7948 19.5605 30.7985C19.707 30.7984 19.8535 30.7983 20 30.7981L19.7981 31C19.7979 30.8906 19.7977 30.7812 19.7975 30.6719C19.795 30.6304 19.7921 30.5869 19.7892 30.5414C19.7744 30.3133 19.7563 30.0328 19.7473 29.6856C19.733 29.136 19.742 28.6537 19.7515 28.145C19.7588 27.749 19.7666 27.3368 19.7638 26.8644C19.7619 26.5422 19.7554 26.1754 19.7489 25.8118C19.7393 25.2718 19.7298 24.7385 19.7358 24.3679C19.7381 24.2291 19.7481 24.1097 19.7581 23.9916C19.7582 23.9911 19.7582 23.9906 19.7583 23.99C19.759 23.982 19.7596 23.974 19.7603 23.966C19.7527 23.0635 19.7442 22.161 19.7353 21.2586C19.7328 21.1804 19.7302 21.1014 19.7277 21.0231C19.7155 20.6404 19.7036 20.2686 19.6867 20.0262C19.6684 19.7634 19.6578 19.1029 19.6465 18.4068C19.6392 17.9509 19.6316 17.4796 19.6215 17.0949C19.6155 16.87 19.6259 16.6566 19.6365 16.437C19.6465 16.2322 19.6567 16.0219 19.6542 15.792C19.6529 15.6769 19.6486 15.5525 19.644 15.4198C19.64 15.303 19.6357 15.1794 19.6331 15.0501C19.6307 14.9299 19.6363 14.6622 19.6435 14.319C19.6479 14.1069 19.6529 13.866 19.657 13.613C19.6506 12.9445 19.6444 12.2759 19.6387 11.6073C19.6296 11.4679 19.6178 11.3468 19.6027 11.251C19.5919 11.1823 19.5789 11.1238 19.5657 11.0637C19.5476 10.9819 19.529 10.8972 19.5142 10.7806C19.5025 10.6894 19.4979 10.5819 19.5027 10.5097C19.505 10.4761 19.5092 10.4502 19.5131 10.4268C19.5174 10.4 19.5213 10.376 19.5212 10.3467C19.5211 10.3256 19.518 10.3037 19.5143 10.2767C19.5083 10.2335 19.5005 10.1774 19.5002 10.0921C19.4992 9.7745 19.5017 9.41349 19.5041 9.05984C19.5069 8.66659 19.5095 8.28221 19.5072 7.97598C19.5046 7.63291 19.5161 7.14405 19.5276 6.65437C19.5357 6.31277 19.5437 5.97065 19.5469 5.67717C19.5501 5.38955 19.5438 5.09008 19.5375 4.80006C19.5301 4.45195 19.5228 4.11711 19.533 3.83256C19.535 3.77502 19.5475 3.70356 19.5632 3.61391C19.5743 3.55037 19.5869 3.47725 19.5986 3.394C19.5986 3.0318 19.5991 2.66953 19.6001 2.30732C19.5984 2.29456 19.5967 2.2814 19.5949 2.26822C19.5949 2.26801 19.5948 2.2678 19.5948 2.26759C19.555 1.97009 19.5005 1.56299 19.533 0.991035C19.5413 0.845642 19.5565 0.754122 19.5702 0.671661C19.5837 0.590675 19.5958 0.518294 19.5983 0.412346C19.6012 0.293288 19.5931 0.152963 19.5842 0L20 0.415795C19.9984 0.415891 19.9967 0.415986 19.9951 0.416082C19.7776 0.428719 19.5347 0.44284 19.2909 0.429693C19.2743 0.428795 19.2564 0.427811 19.2378 0.426824C19.0611 0.417472 18.7995 0.403639 18.5393 0.375798C17.7671 0.368366 16.9948 0.359663 16.2226 0.350163C14.9355 0.334326 13.6481 0.316268 12.3611 0.298221C11.7349 0.289337 11.1344 0.251425 10.6916 0.190736C10.2488 0.129961 10 0.0518541 10 -0.0289338C10 -0.109715 10.2488 -0.187772 10.6916 -0.248542C11.1344 -0.309236 11.7349 -0.347143 12.3611 -0.356027C13.3821 -0.370345 14.4035 -0.384684 15.4247 -0.397898C15.4782 -0.399576 15.5319 -0.401199 15.5854 -0.40272C15.9835 -0.414041 16.3529 -0.436778 16.7225 -0.459545C16.8074 -0.464774 16.8925 -0.470016 16.9777 -0.475109Z" fill="#B2C9C5"/>
</g>
</pattern></defs>
</svg>
