<svg width="584" height="582" viewBox="0 0 584 582" fill="none" xmlns="http://www.w3.org/2000/svg">
<path d="M583.938 271.364C582.643 243.234 578.831 213.808 566.32 188.231C550.922 161.767 527.937 140.854 503.138 122.939C487.629 113.094 476.636 99.0284 470.122 81.8911C448.765 27.37 402.164 -2.09285 343.942 0.16498C318.588 0.16498 292.308 -2.27792 270.581 11.6392C259.958 17.6354 249.298 24.705 237.047 26.5557C219.946 29.924 202.55 20.7076 185.746 22.2251C172.791 23.1505 161.021 29.1097 149.065 34.2175C113.532 49.9113 75.7781 73.2299 58.2706 108.763C46.0191 137.56 64.8221 171.316 52.2374 200.15C34.2858 240.161 -1.98758 274.917 0.0851847 321.777C2.04691 381.332 49.8315 426.303 93.2115 461.614C109.979 474.717 118.196 494.297 128.263 512.36C146.918 543.081 179.416 559.367 210.878 574.543C235.862 588.83 263.548 577.763 289.643 572.766C318.699 567.362 343.942 550.817 373.331 547.597C413.454 544.266 457.648 540.897 487.666 510.879C517.832 482.971 538.967 445.291 543.261 403.873C544.26 392.658 543.446 380.961 546.592 370.079C548.998 360.715 554.883 352.72 560.546 344.947C576.055 323.886 584.827 298.014 583.938 272.067V271.364ZM541.928 273.215C539.855 288.871 530.861 302.752 520.46 314.522C511.651 324.738 501.102 334.102 496.586 347.131C491.589 361.011 495.402 377.519 495.809 392.436C496.771 415.791 490.923 439.517 479.338 459.8C457.204 497.443 434.329 510.546 389.913 503.032C368.593 499.183 345.126 491.706 326.212 506.734C314.553 515.062 303.708 525.278 290.087 530.497C256.442 543.747 215.468 533.347 190.113 507.511C175.197 492.743 168.904 472.237 161.021 453.397C154.95 439.11 146.622 426.155 133.297 417.975C121.231 410.35 106.981 406.353 94.396 399.579C63.8967 383.256 41.9846 347.538 48.9432 312.967C54.2362 290.352 66.4136 270.365 80.3308 252.117C93.3596 236.275 105.278 218.027 101.873 196.559C100.466 183.494 97.283 170.243 98.6895 156.992C102.687 119.719 139.257 86.8509 171.162 70.0467C196.776 56.0926 214.061 64.7908 239.526 72.2306C269.434 80.0034 288.866 50.7626 314.072 40.917C342.313 29.2577 379.327 34.3286 403.497 53.5387C426.371 72.9338 428.444 105.21 439.215 131.082C445.063 144.666 456.13 155.141 469.862 160.656C480.781 165.357 492.7 168.059 502.99 174.129C533.341 192.673 545.296 238.644 542.002 272.511L541.891 273.215H541.928Z" fill="#B5381D"/>
<path d="M283.055 315.444C277.799 294.642 255.48 290.164 236.677 284.723C211.582 276.728 185.709 266.105 158.911 267.03C130.078 269.658 109.979 294.79 114.976 324.327C116.309 337.948 120.269 350.385 130.041 356.566C141.663 363.784 156.357 362.932 168.905 367.892C177.233 370.89 184.784 376.072 190.077 383.031C201.81 397.836 199.774 417.898 202.772 435.479C205.696 454.208 220.65 472.567 240.489 473.455C264.363 474.01 281.056 451.58 285.202 429.742C287.164 419.563 287.534 409.348 288.2 399.243C289.829 371.631 289.495 343.241 283.24 316.184L283.055 315.518V315.444Z" fill="#B5381D" fill-opacity="0.2"/>
<path d="M457.463 232.61C422.855 213.437 390.246 245.343 361.968 261.184C334.392 279.136 296.49 288.834 317.07 326.847C329.359 353.682 342.98 380.516 356.49 406.981C364.522 421.972 374.515 440.516 393.947 443.847C426.149 447.881 443.028 404.575 442.509 380.998C441.732 367.895 436.439 354.718 440.14 341.615C446.322 322.479 461.016 306.711 468.863 288.167C481.152 267.514 481.411 246.009 458.018 232.98L457.426 232.647L457.463 232.61Z" fill="#B5381D" fill-opacity="0.2"/>
<path d="M347.236 217.697C365.373 199.598 386.915 177.649 384.583 150.037C383.066 130.493 374.516 109.062 356.712 99.9941C330.839 85.9659 306.373 110.099 291.124 129.087C266.177 162.214 245.116 121.166 214.32 124.83C190.41 126.903 165.647 150.444 164.981 174.725C164.574 197.821 185.302 211.997 201.144 225.581C223.352 244.866 256.812 269.887 287.793 263.668C301.451 260.3 312.333 248.937 323.844 239.091C331.617 232.318 339.279 225.433 346.681 218.253L347.199 217.734L347.236 217.697Z" fill="#B5381D"/>
</svg>
