<svg width="143" height="29" viewBox="0 0 143 29" fill="none" xmlns="http://www.w3.org/2000/svg">
<path d="M30.0274 13.5313C29.9608 12.1286 29.7648 10.6613 29.1215 9.38596C28.3297 8.06633 27.1477 7.02353 25.8725 6.13024C25.075 5.6393 24.5097 4.93795 24.1747 4.08342C23.0765 1.36478 20.6802 -0.10436 17.6863 0.00822456C16.3825 0.00822456 15.0311 -0.113588 13.9139 0.580376C13.3676 0.879371 12.8195 1.23189 12.1895 1.32417C11.3101 1.49213 10.4156 1.03256 9.55146 1.10823C8.8853 1.15437 8.28004 1.45152 7.66526 1.70622C5.83807 2.48878 3.89668 3.65153 2.99641 5.42336C2.36641 6.85927 3.3333 8.5425 2.68617 9.98026C1.76305 11.9754 -0.102206 13.7085 0.00438039 16.0451C0.105257 19.0147 2.56245 21.2572 4.79315 23.0179C5.65535 23.6713 6.07789 24.6476 6.5956 25.5483C7.55487 27.0802 9.22599 27.8923 10.8438 28.649C12.1286 29.3614 13.5522 28.8096 14.8941 28.5604C16.3882 28.2909 17.6863 27.4659 19.1975 27.3054C21.2607 27.1393 23.5333 26.9713 25.0769 25.4745C26.6281 24.0829 27.7149 22.204 27.9357 20.1387C27.9871 19.5795 27.9452 18.9963 28.107 18.4536C28.2307 17.9867 28.5333 17.588 28.8245 17.2004C29.622 16.1503 30.0731 14.8602 30.0274 13.5664V13.5313ZM27.8672 13.6236C27.7606 14.4043 27.2981 15.0964 26.7632 15.6833C26.3102 16.1927 25.7678 16.6597 25.5356 17.3093C25.2786 18.0014 25.4747 18.8246 25.4956 19.5684C25.5451 20.733 25.2444 21.9161 24.6486 22.9275C23.5104 24.8045 22.3342 25.4579 20.0502 25.0832C18.9539 24.8913 17.7472 24.5184 16.7746 25.2678C16.175 25.683 15.6174 26.1924 14.9169 26.4527C13.1868 27.1134 11.0798 26.5948 9.77605 25.3065C9.00901 24.5701 8.68545 23.5476 8.28004 22.6082C7.96789 21.8958 7.53964 21.2498 6.85445 20.8419C6.23396 20.4617 5.50118 20.2624 4.85405 19.9246C3.28571 19.1107 2.15894 17.3296 2.51677 15.6058C2.78895 14.4781 3.41514 13.4815 4.13079 12.5716C4.80076 11.7816 5.41363 10.8717 5.23852 9.80123C5.1662 9.14972 5.00251 8.48898 5.07484 7.82824C5.2804 5.96967 7.16088 4.33073 8.80155 3.49281C10.1187 2.797 11.0075 3.23073 12.317 3.6017C13.8549 3.98929 14.8541 2.53123 16.1503 2.04028C17.6025 1.4589 19.5059 1.71176 20.7487 2.66965C21.925 3.63677 22.0316 5.24617 22.5854 6.53628C22.8862 7.21364 23.4553 7.73595 24.1614 8.01095C24.7229 8.24535 25.3357 8.38008 25.8649 8.68277C27.4256 9.60744 28.0404 11.8997 27.871 13.5885L27.8653 13.6236H27.8672Z" fill="#F0F1E7"/>
<path d="M14.5552 15.7292C14.2849 14.6919 13.1372 14.4686 12.1703 14.1973C10.8798 13.7986 9.54943 13.2689 8.17142 13.3151C6.68873 13.4461 5.65522 14.6993 5.91217 16.1721C5.98069 16.8513 6.18435 17.4715 6.68682 17.7797C7.28447 18.1396 8.04009 18.0972 8.68532 18.3445C9.11356 18.494 9.50184 18.7524 9.77402 19.0993C10.3774 19.8376 10.2727 20.8379 10.4269 21.7146C10.5772 22.6485 11.3462 23.564 12.3663 23.6083C13.594 23.6359 14.4524 22.5175 14.6656 21.4285C14.7664 20.921 14.7855 20.4116 14.8197 19.9077C14.9035 18.5309 14.8863 17.1153 14.5647 15.7661L14.5552 15.7329V15.7292Z" fill="#F0F1E7"/>
<path d="M23.5239 11.5991C21.7443 10.643 20.0675 12.234 18.6133 13.0239C17.1953 13.919 15.2463 14.4026 16.3046 16.2981C16.9365 17.6362 17.6369 18.9743 18.3316 20.2939C18.7446 21.0414 19.2585 21.9661 20.2578 22.1322C21.9137 22.3334 22.7816 20.1739 22.755 18.9983C22.715 18.3449 22.4428 17.6879 22.6331 17.0345C22.951 16.0803 23.7066 15.2941 24.1101 14.3694C24.742 13.3395 24.7553 12.2672 23.5524 11.6175L23.522 11.6009L23.5239 11.5991Z" fill="#F0F1E7"/>
<path d="M17.8557 10.8551C18.7883 9.95256 19.896 8.85809 19.7761 7.48124C19.6981 6.50674 19.2584 5.43811 18.3429 4.98592C17.0125 4.28642 15.7544 5.48978 14.9702 6.4366C13.6874 8.08846 12.6044 6.04163 11.0208 6.22435C9.79129 6.32771 8.51796 7.50154 8.4837 8.71229C8.46277 9.86397 9.52863 10.5709 10.3433 11.2482C11.4852 12.2098 13.2059 13.4574 14.7989 13.1474C15.5013 12.9794 16.0608 12.4128 16.6528 11.9219C17.0525 11.5841 17.4465 11.2408 17.8271 10.8828L17.8538 10.8569L17.8557 10.8551Z" fill="#F0F1E7"/>
<path d="M92.237 20.1766C91.8696 20.569 91.5936 21.0567 91.2719 21.4967C90.9603 21.9219 90.7216 22.2684 91.0941 22.7445C91.3921 23.1271 91.7273 23.1829 92.1422 23.2929C93.0667 23.5392 94.0436 23.5425 94.941 23.0532C95.8418 22.5623 96.6105 21.6806 97.425 21.0287C99.1436 19.6545 100.613 17.2491 102.838 16.8797C103.341 16.7959 104.015 16.8994 104.516 16.9536C105.088 17.016 105.732 17.1867 106.23 17.5184C106.553 17.7335 107.009 18.0947 107.163 18.4887C107.322 18.8976 107.278 19.6134 107.322 20.0699C107.569 20.1766 107.671 20.3818 107.963 20.4492C108.19 20.5017 108.439 20.5165 108.67 20.5411C109.328 20.6084 109.746 20.5411 110.342 20.2685C110.888 20.0206 111.391 19.5724 111.89 19.2161C112.513 18.7695 113.167 18.3787 113.837 18.0306C114.978 17.4346 116.128 16.8879 117.423 17.1654C118.576 17.4117 119.835 18.2227 120.205 19.5461C120.376 20.1569 120.409 20.5345 121.05 20.592C121.648 20.6445 122.33 20.4097 122.787 19.9681C123.778 19.0109 124.413 17.6481 125.756 17.1982C126.198 17.0504 126.877 17.0504 127.21 17.4511C127.63 17.9568 127.616 18.7465 127.999 19.2686C129.02 20.661 130.146 18.5955 130.822 17.8763C131.731 16.9092 133.048 16.4643 133.868 17.7762C134.515 18.8105 134.064 20.7972 135.453 21.1256C136.049 21.2668 136.775 20.7184 137.335 20.5296C138.003 20.3047 138.649 20.1651 139.339 20.3047C141.049 20.6528 140.158 22.4112 140.451 23.7231C140.591 24.3519 140.983 24.9397 141.35 25.4224C141.707 25.8904 142.344 26.2286 141.858 26.8624C141.022 27.951 139.538 27.1464 138.698 26.5307C137.711 25.8066 137.198 24.1401 135.844 24.9003C134.66 25.5653 133.456 26.6982 132.11 26.8887C131.499 26.9757 130.546 26.8772 130.282 26.1629C129.963 25.3026 130.405 24.5785 130.381 23.7264C130.353 22.7314 129.647 23.1566 129.073 23.3799C128.372 23.6525 127.76 23.9612 127.169 24.4734C126.025 25.4651 124.938 26.9658 123.373 26.8903C122.693 26.8575 122.048 26.4864 121.738 25.7787C121.587 25.4389 121.568 25.0711 121.565 24.6951C121.562 24.3125 121.724 23.7789 121.548 23.4341C120.708 23.5605 119.917 23.2683 119.144 22.8759C118.995 23.4899 118.492 23.9579 118.106 24.3897C117.628 24.92 117.127 25.4044 116.602 25.8723C115.549 26.8115 114.469 27.5109 113.124 27.7293C111.987 27.9148 110.717 27.7457 109.713 27.0791C108.565 26.3156 108.558 24.9808 108.524 23.618C107.891 23.4752 107.268 23.3881 106.653 23.1534C106.245 22.9974 106.184 22.8989 105.884 23.2207C105.647 23.4768 105.439 23.8085 105.244 24.1024C104.443 25.3092 103.346 26.4043 102.183 27.1612C101.06 27.8919 99.9495 28.038 98.7135 27.6866C97.4741 27.3353 96.7528 25.8953 96.2617 24.6885C95.5692 25.2977 95.0037 26.1038 94.2367 26.5997C93.5611 27.0381 92.6603 27.2614 91.8865 27.3353C90.9756 27.4223 90.3 27.0857 89.5617 26.5488C88.8845 26.0562 88.092 25.5587 87.7602 24.6803C86.6511 25.5177 85.5912 26.36 84.3331 26.8854C83.2766 27.327 81.7747 27.5208 80.708 27.0414C78.3731 25.9955 80.2576 22.8217 80.8384 21.1617C80.5268 21.0107 80.217 20.858 79.9054 20.7102C79.7429 20.6347 79.4093 20.3769 79.2332 20.413C78.8251 20.4984 78.324 21.6133 78.0395 21.9827C77.2792 22.9662 76.4818 23.9168 75.5996 24.7657C74.7327 25.6014 73.7794 26.4519 72.7211 26.9576C71.5901 27.4978 70.4506 27.593 69.2382 27.5339C68.2545 27.4863 66.7949 27.1563 66.1972 26.1843C65.9026 25.7049 65.7638 25.0859 65.7113 24.5145C65.6757 24.1254 65.6588 23.925 65.5724 23.8758C65.398 23.7773 65.1068 24.0564 65.0255 24.1319C64.206 24.8921 61.0211 26.8542 58.5389 27.3829C58.0597 27.4847 56.5511 27.7589 55.1914 27.0758C54.4616 26.7097 54.1213 26.2418 53.9909 26.0316C53.9706 26.0004 53.9503 25.9643 53.9503 25.9643C53.7149 25.5571 53.6201 25.2024 53.5778 24.9611C53.0157 25.5866 52.1775 26.3206 51.0041 26.8345C50.2879 27.1497 49.2974 27.6242 48.1477 27.3435C47.2909 27.1349 46.4884 26.8131 46.2327 25.7853C46.2056 25.6737 46.165 25.5456 46.1328 25.3683C45.9025 24.104 46.2344 22.8381 46.3478 22.4473C46.3478 22.4408 46.3512 22.4375 46.3512 22.4342C46.3529 22.426 46.3546 22.4227 46.358 22.4145C47.3637 19.0535 46.7288 18.5364 46.7288 18.5364C46.0769 18.0044 43.7488 18.9534 42.7413 20.528C42.5567 20.8169 42.1639 21.6264 41.3817 23.2437C41.3292 23.352 41.1582 23.6968 40.9143 24.15C40.8703 24.2304 40.8212 24.3191 40.7569 24.434C40.2371 25.3371 39.5801 27.1218 38.5117 27.2236C37.8327 27.2876 37.6041 27.2991 37.1859 26.6933C36.7931 26.1252 36.6255 25.5866 36.6238 24.8576C35.557 25.3387 33.3119 26.9084 32.345 25.5029C31.4612 24.2173 34.1077 22.8677 34.768 22.3357C35.2726 21.9301 36.8269 20.638 38.0173 18.8762C38.9401 17.5085 39.3786 16.2541 39.912 14.7288C40.657 12.596 40.5351 12.3891 41.2022 10.0872C41.6729 8.46334 42.3959 6.95116 43.1985 5.50136C43.9418 4.15994 45.0102 3.02703 46.1057 2.05339C47.2063 1.07646 48.6099 0.624943 49.697 1.84487C50.9059 3.20271 50.0339 5.89542 49.3549 7.34193C49.2263 7.61612 48.9147 8.47812 48.1714 9.70133C47.1826 11.3284 43.957 14.517 44.2262 14.8372C44.3973 15.0424 45.6875 13.7289 47.7701 13.6452C48.3052 13.6238 49.6377 13.5351 50.5199 14.384C51.6492 15.4709 51.6222 17.6481 51.3275 18.8976C51.1887 19.4854 51.0295 19.8876 50.718 21.119C50.4843 22.0418 50.3489 22.7757 50.657 23.1845C50.9296 23.5474 51.485 23.5474 51.8135 23.462C52.5229 23.2781 52.9496 22.4917 53.4576 21.5558C53.5981 21.2964 53.6828 21.0731 53.6828 21.0731C53.7928 20.7792 53.7962 20.6199 54.0807 20.0469C54.5226 19.157 55.0492 18.5544 55.4386 18.1078C55.8738 17.6087 56.2395 17.277 56.3208 17.2048C56.9947 16.6038 57.7244 16.1392 58.5524 15.7336C60.1153 14.9685 64.9764 14.2609 64.4939 17.5939C64.2941 18.9682 63.5846 20.0666 62.6229 20.9253C62.0489 21.4392 61.524 21.7315 61.1752 21.9203C59.78 22.6772 58.6506 22.7938 58.6591 23.1534C58.6625 23.3143 58.8911 23.4292 58.9977 23.4817C59.2585 23.6098 60.1288 23.948 63.0411 22.5491C64.714 21.7462 65.481 21.2701 66.1634 20.4048C66.4648 20.0223 66.6476 19.4377 66.8762 18.9879C67.1607 18.4329 67.286 17.7581 67.501 17.1687C68.0107 15.7714 69.267 15.3363 70.5166 15.7189C71.0686 15.888 71.7052 16.2558 71.7509 16.9733C71.7984 17.7269 71.2057 18.4887 70.8993 19.1077C70.2762 20.3589 69.1857 22.0828 70.2677 23.4325C70.7079 23.9809 71.7035 23.8331 72.2809 23.71C72.9531 23.5655 73.6947 23.2896 74.2078 22.7609C74.4059 22.5573 74.521 22.4753 75.7215 20.8678C77.1726 18.9255 77.3961 18.5955 77.6111 17.9912C77.7127 17.7072 77.7669 17.5085 77.9396 17.2179C78.3426 16.5382 78.9623 16.1047 79.6701 16.0669C80.4201 16.0275 80.7588 16.6465 81.3175 17.1013C81.9847 17.6448 82.8939 17.9272 83.6999 18.0701C84.3585 18.1866 85.1357 18.405 85.5099 19.0946C86.0009 19.9993 85.3355 20.6725 84.8597 21.2914C84.4991 21.7594 83.964 22.3143 83.8116 22.9301C83.5424 24.0055 84.5786 24.0876 85.2034 23.7986C85.8113 23.5179 86.3328 23.0351 86.7663 22.4802C87.3826 21.6937 87.1185 20.6396 87.2658 19.6791C87.5197 18.0274 88.1479 16.2262 88.8963 14.7649C89.7226 13.1526 90.6335 11.665 91.8882 10.427C92.8364 9.49116 94.2468 8.24989 95.5743 8.9165C97.3691 9.81626 96.8764 12.6502 96.1618 14.2444C95.6928 15.2936 95.3254 16.149 94.8649 16.8534C94.2214 17.8385 93.0836 19.2637 92.2336 20.17L92.237 20.1766ZM101.804 20.6232C101.091 20.9434 99.3332 22.7166 99.8276 23.7247C100.143 24.3684 101.148 24.0088 101.602 23.7362C102.237 23.3553 102.775 22.7035 103.243 22.1009C102.682 21.6756 102.186 21.2225 101.802 20.6216L101.804 20.6232ZM116.03 22.2733C115.64 22.0319 115.3 21.83 114.967 21.4967C114.608 21.1387 114.506 20.8481 114.127 21.275C113.642 21.8218 112.755 22.6148 112.66 23.4407C112.542 24.4816 113.595 24.59 114.205 24.2354C114.989 23.7789 115.583 23.1254 116.03 22.2749V22.2733ZM48.0884 4.45712C48.0173 4.40951 47.8819 4.52772 47.7904 4.61146C46.9743 5.37165 46.3258 6.7295 45.9889 7.44865C45.7196 8.02167 45.4961 8.51095 45.2574 9.17756C45.0034 9.88686 44.8764 10.2415 44.9458 10.2908C45.1304 10.4205 46.4189 8.38289 46.998 7.46835C47.1284 7.26147 47.4941 6.6786 47.804 5.83795C47.8548 5.70003 48.2696 4.57862 48.0867 4.45712H48.0884ZM94.6143 12.1445C93.6457 12.6108 93.1818 13.7174 92.6806 14.696C92.4165 15.2115 92.0897 15.7632 91.8882 16.3132C91.7189 16.7762 91.5682 17.126 91.6105 17.6448C92.3132 16.7697 93.0768 15.888 93.5983 14.8585C93.7761 14.5071 95.09 12.5303 94.6143 12.1445ZM61.3327 18.0635C61.3835 17.121 60.1559 17.8008 59.7952 18.0306C59.3736 18.2999 59.0248 18.6776 58.6642 19.0388C58.5863 19.1159 58.2443 19.3901 57.9513 19.8548C57.7769 20.1323 57.7989 20.1865 57.8108 20.2045C57.9344 20.3999 58.9351 20.0403 59.653 19.6709C60.2558 19.3606 61.292 18.822 61.3327 18.0635Z" fill="#F0F1E7"/>
<path d="M72.0595 14.8224C71.0554 14.6254 69.5688 14.0343 70.2799 12.5205C70.4526 12.1543 70.6795 11.8571 70.9453 11.6191C71.2535 11.3449 72.0679 10.6323 73.0822 10.8589C73.9559 11.0543 74.6738 11.8768 74.6738 12.7799C74.6738 13.6665 73.988 14.2264 73.8593 14.3233C73.3226 14.7255 72.6843 14.8405 72.0595 14.8224Z" fill="#F0F1E7"/>
</svg>
